<?xml version="1.0" encoding="UTF-8"?>
<svg xmlns="http://www.w3.org/2000/svg" xmlns:xlink="http://www.w3.org/1999/xlink" width="120px" height="120px" viewBox="0 0 120 120" version="1.1">
<g id="surface1">
<path style=" stroke:none;fill-rule:nonzero;fill:rgb(78.823531%,49.411765%,40.392157%);fill-opacity:1;" d="M 0 99.445312 L 27.5625 99.445312 C 33.324219 99.445312 37.996094 94.773438 37.996094 89.011719 L 28.78125 80.957031 L 16.957031 89.011719 L 9.300781 89.011719 C 3.539062 89.011719 0 93.683594 0 99.445312 Z M 0 99.445312 "/>
<path style=" stroke:none;fill-rule:nonzero;fill:rgb(98.039216%,90.980393%,67.450982%);fill-opacity:1;" d="M 106.957031 59.535156 L 114.78125 59.535156 L 114.78125 30.988281 L 99.390625 25.128906 Z M 106.957031 59.535156 "/>
<path style=" stroke:none;fill-rule:nonzero;fill:rgb(98.431373%,69.01961%,44.313726%);fill-opacity:1;" d="M 109.566406 89.011719 L 106.957031 89.011719 L 106.957031 68.519531 C 96.433594 72.957031 85.824219 77.652344 74.871094 82.871094 C 81.304688 87.390625 95.914062 95.914062 100.960938 99.445312 L 120 99.445312 C 120 93.683594 115.328125 89.011719 109.566406 89.011719 Z M 109.566406 89.011719 "/>
<path style=" stroke:none;fill-rule:nonzero;fill:rgb(78.823531%,49.411765%,40.392157%);fill-opacity:1;" d="M 104.347656 20.554688 L 96.316406 20.554688 C 90.578125 20.554688 83.039062 24.292969 79.570312 28.863281 L 62.964844 50.730469 L 49.304688 70 L 62.964844 88.996094 C 70.695312 88.996094 87.664062 88.96875 87.664062 88.96875 C 98.355469 88.308594 106.957031 79.367188 106.957031 68.519531 L 106.957031 30.988281 L 114.78125 30.988281 C 114.78125 25.226562 110.109375 20.554688 104.347656 20.554688 Z M 104.347656 20.554688 "/>
<path style=" stroke:none;fill-rule:nonzero;fill:rgb(98.431373%,69.01961%,44.313726%);fill-opacity:1;" d="M 49.972656 50.730469 C 31.738281 50.730469 16.957031 65.511719 16.957031 83.746094 L 16.957031 88.960938 L 62.964844 88.996094 L 62.964844 50.730469 C 57.695312 50.730469 49.972656 50.730469 49.972656 50.730469 Z M 49.972656 50.730469 "/>
<path style=" stroke:none;fill-rule:nonzero;fill:rgb(98.431373%,69.01961%,44.313726%);fill-opacity:1;" d="M 80.871094 50.140625 L 88.695312 50.140625 L 88.695312 57.96875 L 80.871094 57.96875 Z M 80.871094 50.140625 "/>
<path style=" stroke:none;fill-rule:nonzero;fill:rgb(98.431373%,69.01961%,44.313726%);fill-opacity:1;" d="M 91.304688 60.578125 L 99.128906 60.578125 L 99.128906 68.402344 L 91.304688 68.402344 Z M 91.304688 60.578125 "/>
<path style=" stroke:none;fill-rule:nonzero;fill:rgb(56.078434%,33.333334%,26.274511%);fill-opacity:1;" d="M 37.824219 73.34375 L 45.652344 73.34375 L 45.652344 81.167969 L 37.824219 81.167969 Z M 37.824219 73.34375 "/>
<path style=" stroke:none;fill-rule:nonzero;fill:rgb(56.078434%,33.333334%,26.274511%);fill-opacity:1;" d="M 90.527344 89.011719 L 87.664062 89.011719 L 87.664062 75.96875 C 87.664062 75.96875 82.304688 75.96875 75.441406 75.96875 C 68.585938 75.96875 62.976562 81.828125 62.964844 88.996094 C 62.964844 89 62.964844 89.007812 62.964844 89.011719 C 62.964844 94.773438 66.503906 99.445312 72.265625 99.445312 L 100.960938 99.445312 C 100.960938 93.683594 96.289062 89.011719 90.527344 89.011719 Z M 90.527344 89.011719 "/>
</g>
</svg>
