<?xml version="1.0" encoding="UTF-8"?>
<svg xmlns="http://www.w3.org/2000/svg" xmlns:xlink="http://www.w3.org/1999/xlink" width="300px" height="300px" viewBox="0 0 300 300" version="1.1">
<g id="surface1">
<path style=" stroke:none;fill-rule:nonzero;fill:rgb(78.823531%,49.411765%,40.392157%);fill-opacity:1;" d="M 0 248.617188 L 68.902344 248.617188 C 83.3125 248.617188 94.992188 236.9375 94.992188 222.527344 L 71.957031 202.390625 L 42.390625 222.527344 L 23.25 222.527344 C 8.84375 222.527344 0 234.207031 0 248.617188 Z M 0 248.617188 "/>
<path style=" stroke:none;fill-rule:nonzero;fill:rgb(98.039216%,90.980393%,67.450982%);fill-opacity:1;" d="M 267.390625 148.832031 L 286.957031 148.832031 L 286.957031 77.472656 L 248.480469 62.824219 Z M 267.390625 148.832031 "/>
<path style=" stroke:none;fill-rule:nonzero;fill:rgb(98.431373%,69.01961%,44.313726%);fill-opacity:1;" d="M 273.914062 222.527344 L 267.390625 222.527344 L 267.390625 171.300781 C 241.085938 182.390625 214.566406 194.128906 187.175781 207.175781 C 203.261719 218.476562 239.78125 239.78125 252.40625 248.617188 L 300 248.617188 C 300 234.207031 288.320312 222.527344 273.914062 222.527344 Z M 273.914062 222.527344 "/>
<path style=" stroke:none;fill-rule:nonzero;fill:rgb(78.823531%,49.411765%,40.392157%);fill-opacity:1;" d="M 260.871094 51.382812 L 240.789062 51.386719 C 226.441406 51.386719 207.601562 60.734375 198.925781 72.160156 L 157.414062 126.824219 L 123.261719 175 L 157.414062 222.492188 C 176.738281 222.492188 219.160156 222.421875 219.160156 222.421875 C 245.894531 220.773438 267.390625 198.414062 267.390625 171.300781 L 267.390625 77.472656 L 286.957031 77.472656 C 286.957031 63.0625 275.277344 51.382812 260.871094 51.382812 Z M 260.871094 51.382812 "/>
<path style=" stroke:none;fill-rule:nonzero;fill:rgb(98.431373%,69.01961%,44.313726%);fill-opacity:1;" d="M 124.929688 126.824219 C 79.34375 126.824219 42.390625 163.773438 42.390625 209.363281 L 42.390625 222.40625 L 157.414062 222.492188 L 157.414062 126.824219 C 144.242188 126.824219 124.929688 126.824219 124.929688 126.824219 Z M 124.929688 126.824219 "/>
<path style=" stroke:none;fill-rule:nonzero;fill:rgb(98.431373%,69.01961%,44.313726%);fill-opacity:1;" d="M 202.171875 125.355469 L 221.738281 125.355469 L 221.738281 144.917969 L 202.171875 144.917969 Z M 202.171875 125.355469 "/>
<path style=" stroke:none;fill-rule:nonzero;fill:rgb(98.431373%,69.01961%,44.313726%);fill-opacity:1;" d="M 228.261719 151.441406 L 247.824219 151.441406 L 247.824219 171.007812 L 228.261719 171.007812 Z M 228.261719 151.441406 "/>
<path style=" stroke:none;fill-rule:nonzero;fill:rgb(56.078434%,33.333334%,26.274511%);fill-opacity:1;" d="M 94.566406 183.359375 L 114.128906 183.359375 L 114.128906 202.921875 L 94.566406 202.921875 Z M 94.566406 183.359375 "/>
<path style=" stroke:none;fill-rule:nonzero;fill:rgb(56.078434%,33.333334%,26.274511%);fill-opacity:1;" d="M 226.320312 222.527344 L 219.160156 222.527344 L 219.160156 189.921875 C 219.160156 189.921875 205.761719 189.921875 188.605469 189.921875 C 171.464844 189.921875 157.4375 204.574219 157.417969 222.488281 C 157.417969 222.503906 157.414062 222.515625 157.414062 222.527344 C 157.414062 236.9375 166.257812 248.617188 180.667969 248.617188 L 252.40625 248.617188 C 252.40625 234.207031 240.726562 222.527344 226.320312 222.527344 Z M 226.320312 222.527344 "/>
</g>
</svg>
