<?xml version="1.0" encoding="UTF-8"?>
<svg xmlns="http://www.w3.org/2000/svg" xmlns:xlink="http://www.w3.org/1999/xlink" width="120px" height="60px" viewBox="0 0 120 60" version="1.1">
<g id="surface1">
<path style=" stroke:none;fill-rule:nonzero;fill:rgb(78.823531%,49.411765%,40.392157%);fill-opacity:1;" d="M 0 49.722656 L 27.5625 49.722656 C 33.324219 49.722656 37.996094 47.386719 37.996094 44.503906 L 28.78125 40.476562 L 16.957031 44.503906 L 9.300781 44.503906 C 3.539062 44.503906 0 46.839844 0 49.722656 Z M 0 49.722656 "/>
<path style=" stroke:none;fill-rule:nonzero;fill:rgb(98.039216%,90.980393%,67.450982%);fill-opacity:1;" d="M 106.957031 29.765625 L 114.78125 29.765625 L 114.78125 15.496094 L 99.390625 12.566406 Z M 106.957031 29.765625 "/>
<path style=" stroke:none;fill-rule:nonzero;fill:rgb(98.431373%,69.01961%,44.313726%);fill-opacity:1;" d="M 109.566406 44.503906 L 106.957031 44.503906 L 106.957031 34.261719 C 96.433594 36.476562 85.824219 38.824219 74.871094 41.433594 C 81.304688 43.695312 95.914062 47.957031 100.960938 49.722656 L 120 49.722656 C 120 46.839844 115.328125 44.503906 109.566406 44.503906 Z M 109.566406 44.503906 "/>
<path style=" stroke:none;fill-rule:nonzero;fill:rgb(78.823531%,49.411765%,40.392157%);fill-opacity:1;" d="M 104.347656 10.277344 L 96.316406 10.277344 C 90.578125 10.277344 83.039062 12.148438 79.570312 14.433594 L 62.964844 25.363281 L 49.304688 35 L 62.964844 44.5 C 70.695312 44.5 87.664062 44.484375 87.664062 44.484375 C 98.355469 44.15625 106.957031 39.683594 106.957031 34.261719 L 106.957031 15.496094 L 114.78125 15.496094 C 114.78125 12.613281 110.109375 10.277344 104.347656 10.277344 Z M 104.347656 10.277344 "/>
<path style=" stroke:none;fill-rule:nonzero;fill:rgb(98.431373%,69.01961%,44.313726%);fill-opacity:1;" d="M 49.972656 25.363281 C 31.738281 25.363281 16.957031 32.753906 16.957031 41.871094 L 16.957031 44.480469 L 62.964844 44.5 L 62.964844 25.363281 C 57.695312 25.363281 49.972656 25.363281 49.972656 25.363281 Z M 49.972656 25.363281 "/>
<path style=" stroke:none;fill-rule:nonzero;fill:rgb(98.431373%,69.01961%,44.313726%);fill-opacity:1;" d="M 80.871094 25.070312 L 88.695312 25.070312 L 88.695312 28.984375 L 80.871094 28.984375 Z M 80.871094 25.070312 "/>
<path style=" stroke:none;fill-rule:nonzero;fill:rgb(98.431373%,69.01961%,44.313726%);fill-opacity:1;" d="M 91.304688 30.289062 L 99.128906 30.289062 L 99.128906 34.203125 L 91.304688 34.203125 Z M 91.304688 30.289062 "/>
<path style=" stroke:none;fill-rule:nonzero;fill:rgb(56.078434%,33.333334%,26.274511%);fill-opacity:1;" d="M 37.824219 36.671875 L 45.652344 36.671875 L 45.652344 40.585938 L 37.824219 40.585938 Z M 37.824219 36.671875 "/>
<path style=" stroke:none;fill-rule:nonzero;fill:rgb(56.078434%,33.333334%,26.274511%);fill-opacity:1;" d="M 90.527344 44.503906 L 87.664062 44.503906 L 87.664062 37.984375 C 87.664062 37.984375 82.304688 37.984375 75.441406 37.984375 C 68.585938 37.984375 62.976562 40.914062 62.964844 44.496094 C 62.964844 44.5 62.964844 44.503906 62.964844 44.503906 C 62.964844 47.386719 66.503906 49.722656 72.265625 49.722656 L 100.960938 49.722656 C 100.960938 46.839844 96.289062 44.503906 90.527344 44.503906 Z M 90.527344 44.503906 "/>
</g>
</svg>
